<?xml version="1.0" encoding="utf-8"?>
<!-- Generator: Adobe Illustrator 25.1.0, SVG Export Plug-In . SVG Version: 6.00 Build 0)  -->
<svg version="1.1" id="Layer_1" xmlns="http://www.w3.org/2000/svg" xmlns:xlink="http://www.w3.org/1999/xlink" x="0px" y="0px"
	 viewBox="0 0 28 38.8" style="enable-background:new 0 0 28 38.8;" xml:space="preserve">
<style type="text/css">
	.st0{fill:#FFA300;}
</style>
<g>
	<path class="st0" d="M14,0C6.3,0,0,6.3,0,14v15c0,1.1,0.9,2,2,2s2-0.9,2-2v-2h4v2c0,1.1,0.9,2,2,2s2-0.9,2-2v-2h4v2
		c0,1.1,0.9,2,2,2s2-0.9,2-2v-2h4v2c0,1.1,0.9,2,2,2s2-0.9,2-2V14C28,6.3,21.7,0,14,0z M4,12c0-2.2,1.8-4,4-4c1.5,0,2.8,0.8,3.5,2.1
		C11.3,10,11.2,10,11,10c-1.1,0-2,0.9-2,2s0.9,2,2,2c0.2,0,0.3,0,0.5-0.1C10.8,15.2,9.5,16,8,16C5.8,16,4,14.2,4,12z M20,16
		c-2.2,0-4-1.8-4-4s1.8-4,4-4c1.5,0,2.8,0.8,3.5,2.1C23.3,10,23.2,10,23,10c-1.1,0-2,0.9-2,2s0.9,2,2,2c0.2,0,0.3,0,0.5-0.1
		C22.8,15.2,21.5,16,20,16z"/>
</g>
</svg>
